<svg xmlns="http://www.w3.org/2000/svg" version="1.1" xmlns:xlink="http://www.w3.org/1999/xlink" xmlns:svgjs="http://svgjs.dev/svgjs" width="100%" height="100%" viewBox="0 0 1000 600"><rect width="1000" height="600" x="0" y="0" fill="#e2d3f4"/><g><rect width="333.3333333333333" height="333.3333333333333" rx="13.333333333333334" ry="13.333333333333334" y="124.76080972123083" fill="#013dc4" transform="matrix(1.2190533031255206,0,0,1.2190533031255204,0,-55.26563010101489)" x="102.53858184814453"/><path d="M185.67686950851805 230.76336188362578L185.67686950851805 230.76336188362578Q154.07944674664475 230.76336188362578 154.07944674664475 254.5784564467414L154.07944674664475 254.5784564467414Q154.07944674664475 267.8318198829717 161.3644081056322 272.7762314077462Q168.620112591692 277.74989980544854 190.85533601671398 282.6943113302232Q213.0613025688083 287.6387228549978 222.33573128687664 295.5380785454661Q231.61016000494502 303.43743423593446 231.61016000494502 321.54743857815623L231.61016000494502 321.54743857815623Q231.61016000494502 366.4274816491874 185.0624751770372 366.4274816491874L185.0624751770372 366.4274816491874Q169.67336001708776 366.4274816491874 146.50191665838068 362.8288862790852L146.50191665838068 362.8288862790852L138.9243865701166 361.7756388536895L140.59202832699324 348.3174773069656Q169.26376379610053 352.0916139146338 184.21402586213503 352.0916139146338L184.21402586213503 352.0916139146338Q215.37259553009346 352.0916139146338 215.37259553009346 322.80548411404567L215.37259553009346 322.80548411404567Q215.37259553009346 311.01496432419844 208.5264872650209 305.8657546889302Q201.68037899994835 300.6872881807343 182.95598032624565 297.1179496835598L182.95598032624565 297.1179496835598Q158.29243644822785 291.8517125565809 147.9647603047637 283.5427606451253Q137.6663410342272 275.2045518607421 137.6663410342272 255.6317038721372L137.6663410342272 255.6317038721372Q137.6663410342272 216.42749414907215 184.62362208312229 216.42749414907215L184.62362208312229 216.42749414907215Q200.01273724307168 216.42749414907215 221.48728197197448 219.58723642525948L221.48728197197448 219.58723642525948L228.65521583925133 220.64048385065524L227.1923721928683 234.33270038080036Q197.90624239228015 230.76336188362578 185.67686950851805 230.76336188362578ZM275.84655187156767 364.52578490888953L259.6089873967161 364.52578490888953L259.6089873967161 218.76804398328497L288.8951171973043 218.76804398328497L330.1765648982332 341.99799275459094L371.4872694720898 218.76804398328497L400.74414239975033 218.76804398328497L400.74414239975033 364.52578490888953L384.5358347978264 364.52578490888953L384.5358347978264 236.02959901060467L381.58089063213265 236.02959901060467L339.2461955058079 359.2595477819106L321.13619116358615 359.2595477819106L278.8014960372614 236.02959901060467L275.84655187156767 236.02959901060467L275.84655187156767 364.52578490888953Z " fill="#e2d3f4" transform="matrix(1.2190533031255206,0,0,1.2190533031255204,0,-55.26563010101489)"/><path d="M535.8852992012678 366.42748582995154L519.2052509256687 366.42748582995154L519.2052509256687 216.42748491111635L535.8852992012678 216.42748491111635L535.8852992012678 366.42748582995154ZM589.2373669708735 366.42748582995154L572.5272103048853 366.42748582995154L572.5272103048853 216.42748491111635L602.6657090844425 216.42748491111635L645.1486479235585 343.24402523029215L687.6315867626747 216.42748491111635L717.7700855422319 216.42748491111635L717.7700855422319 366.42748582995154L701.0900372666327 366.42748582995154L701.0900372666327 234.1914352407255L698.0490898373268 234.1914352407255L654.4822489442007 361.00797555990124L635.8451552933057 361.00797555990124L592.2482060097904 234.1914352407255L589.2373669708735 234.1914352407255L589.2373669708735 366.42748582995154Z " fill="#013dc4" transform="matrix(1.2190533031255206,0,0,1.2190533031255204,0,-55.26563010101489)"/></g></svg>